# xmcd CD database file
#
# Track frame offsets:
#	150
#	24186
#	49978
#	65412
#	88585
#	110814
#	131864
#	157633
#	179879
#	213471
#	240656
#
# Disc length: 3442 seconds
#
# Revision: 0
# Processed by: cddbd v1.5.2PL0 Copyright (c) Steve Scherf et al.
# Submitted via: CDex 1.70beta2
#
DISCID=9a0d700b
DTITLE=Willie Nelson - Two Men with the Blues [Borders Exclusive]
DYEAR=2008
DGENRE=Jazz
TTITLE0=Bright Lights, Big City
TTITLE1=Night Life
TTITLE2=Caldonia
TTITLE3=Stardust
TTITLE4=Basin Street Blues
TTITLE5=Georgia on My Mind
TTITLE6=Rainy Day Blues
TTITLE7=My Bucket's Got a Hole in It
TTITLE8=Ain't Nobody's Business
TTITLE9=That's All
TTITLE10=Sweet Georgia Brown
EXTD=YEAR: 2008
EXTT0=
EXTT1=
EXTT2=
EXTT3=
EXTT4=
EXTT5=
EXTT6=
EXTT7=
EXTT8=
EXTT9=
EXTT10=
PLAYORDER=
